<?xml version="1.0" encoding="utf-8"?>
<!-- Generator: Adobe Illustrator 16.0.4, SVG Export Plug-In . SVG Version: 6.00 Build 0)  -->
<!DOCTYPE svg PUBLIC "-//W3C//DTD SVG 1.1//EN" "http://www.w3.org/Graphics/SVG/1.1/DTD/svg11.dtd">
<svg version="1.1" id="Layer_1" xmlns="http://www.w3.org/2000/svg" xmlns:xlink="http://www.w3.org/1999/xlink" x="0px" y="0px"
	 width="468.834px" height="113px" viewBox="186.64 340.445 468.834 113" enable-background="new 186.64 340.445 468.834 113"
	 xml:space="preserve">
<g>
	
		<polyline fill="none" stroke="#000000" stroke-width="6" stroke-linecap="round" stroke-linejoin="round" stroke-miterlimit="10" points="
		293.775,364.854 293.775,426.586 269.355,364.854 244.89,426.586 244.89,364.854 	"/>
	
		<line fill="none" stroke="#000000" stroke-width="3" stroke-linecap="round" stroke-linejoin="round" stroke-miterlimit="10" x1="223.64" y1="389.114" x2="315.025" y2="389.114"/>
	
		<line fill="none" stroke="#000000" stroke-width="3" stroke-linecap="round" stroke-linejoin="round" stroke-miterlimit="10" x1="223.64" y1="402.494" x2="315.025" y2="402.494"/>
</g>
<line fill="none" stroke="#000000" stroke-width="6" stroke-linecap="round" stroke-linejoin="round" stroke-miterlimit="10" x1="190.191" y1="343.779" x2="348.473" y2="343.779"/>
<line fill="none" stroke="#000000" stroke-width="6" stroke-linecap="round" stroke-linejoin="round" stroke-miterlimit="10" x1="190.191" y1="449.778" x2="348.473" y2="449.778"/>
<line fill="none" stroke="#000000" stroke-width="6" stroke-linecap="round" stroke-linejoin="round" stroke-miterlimit="10" x1="190.191" y1="343.779" x2="201.673" y2="395.719"/>
<line fill="none" stroke="#000000" stroke-width="6" stroke-linecap="round" stroke-linejoin="round" stroke-miterlimit="10" x1="201.673" y1="394.695" x2="190.191" y2="449.778"/>
<line fill="none" stroke="#000000" stroke-width="6" stroke-linecap="round" stroke-linejoin="round" stroke-miterlimit="10" x1="348.473" y1="343.779" x2="336.673" y2="395.719"/>
<line fill="none" stroke="#000000" stroke-width="6" stroke-linecap="round" stroke-linejoin="round" stroke-miterlimit="10" x1="336.673" y1="395.719" x2="348.473" y2="449.778"/>
<rect x="362.723" y="355.404" fill="none" width="300.667" height="78.582"/>
<text transform="matrix(1 0 0 1 362.7229 423.7236)" font-family="'Avenir-Roman'" font-size="80">PENGO</text>
<line fill="none" x1="201.673" y1="394.695" x2="336.673" y2="395.719"/>
<line fill="none" x1="498.141" y1="449.778" x2="498.141" y2="453.445"/>
<line fill="none" x1="704.141" y1="402.494" x2="734.808" y2="426.586"/>
<rect x="201.673" y="395.719" fill="none" width="135" height="0"/>
<rect x="322.141" y="440.779" fill="none" width="135.001" height="0"/>
</svg>
